<svg width="200" height="41" viewBox="0 0 200 41" fill="none" xmlns="http://www.w3.org/2000/svg">
<g clip-path="url(#clip0_1156_3125)">
<path d="M199.645 30.9367V35.8861H195.494C191.063 35.7468 188.696 33.3544 188.696 28.8608V17.557H185.797V13.2152H188.696V8.35443H194.823V13.1646H199.506V17.4937H194.823V28.2532C194.823 29.7089 195.114 30.8734 197.354 30.8734L199.645 30.9367Z" fill="white"/>
<path d="M161.38 24.595V24.2658C161.313 22.81 161.535 21.3553 162.032 19.9853C162.529 18.6153 163.291 17.3568 164.276 16.282C165.26 15.2072 166.447 14.3372 167.768 13.7219C169.089 13.1066 170.518 12.758 171.975 12.6962C172.266 12.6962 172.569 12.6962 172.861 12.6962C178.645 12.6962 183.721 16.0633 183.721 24.0886V25.7975H167.645C167.81 29.4937 169.81 31.5823 173.177 31.5823C176.076 31.5823 177.43 30.3165 177.823 28.4684H183.607C182.899 33.2912 179.051 35.9747 172.962 35.9747C166.278 35.9241 161.38 31.6962 161.38 24.595ZM177.696 21.9241C177.481 18.557 175.785 16.9367 172.835 16.9367C169.886 16.9367 168.19 18.7595 167.772 21.9241H177.696Z" fill="white"/>
<path d="M136.367 24.595V24.2658C136.301 22.812 136.521 21.3594 137.017 19.9909C137.512 18.6225 138.273 17.3651 139.254 16.2906C140.236 15.2161 141.419 14.3456 142.738 13.7289C144.056 13.1122 145.483 12.7612 146.937 12.6962C147.228 12.6962 147.532 12.6962 147.823 12.6962C153.607 12.6962 158.696 16.0633 158.696 24.0886V25.7975H142.633C142.797 29.4937 144.797 31.5823 148.164 31.5823C151.063 31.5823 152.418 30.3165 152.81 28.4684H158.595C157.873 33.2912 154.025 35.9747 147.937 35.9747C141.266 35.9241 136.367 31.6962 136.367 24.595ZM152.683 21.9241C152.468 18.557 150.772 16.9367 147.823 16.9367C144.873 16.9367 143.228 18.8102 142.759 21.9114L152.683 21.9241Z" fill="white"/>
<path d="M101.266 13.1646H107.747L111.709 28.1772L116.05 13.1646H121.114L125.038 28.1772L129.215 13.1646H135.152L128.114 35.4683H122.038L118.24 21.4683L114.177 35.4683H108.025L101.266 13.1646Z" fill="white"/>
<path d="M80.6709 28.4557H86.4557C86.7215 30.4684 87.7215 31.6203 90.3798 31.6203C92.7595 31.6203 93.8608 30.7215 93.8608 29.1899C93.8608 27.6582 92.595 27.0127 89.3545 26.557C83.4177 25.6582 81.1266 23.9494 81.1266 19.5949C81.1266 14.9494 85.3798 12.6456 89.9874 12.6456C94.9367 12.6456 98.6709 14.443 99.2026 19.5696H93.4937C93.4573 19.1733 93.3427 18.7881 93.1565 18.4363C92.9704 18.0846 92.7164 17.7731 92.4092 17.5201C92.102 17.267 91.7477 17.0774 91.3668 16.962C90.9859 16.8467 90.5859 16.808 90.1899 16.8481H90C88 16.8481 86.8355 17.7848 86.8355 19.1519C86.8355 20.519 87.9114 21.1139 91.1772 21.5823C96.7215 22.4177 99.8228 23.8228 99.8228 28.5949C99.8228 33.3671 96.3165 35.924 90.443 35.924C84.5696 35.924 80.8355 33.2785 80.6709 28.4557Z" fill="white"/>
<path d="M56.0884 13.1646H62.215V16.6962C62.9055 15.3999 63.9537 14.3291 65.235 13.6111C66.5162 12.893 67.9767 12.5579 69.4428 12.6456C73.7846 12.6456 76.9365 15.2911 76.9365 21.3291V35.519H70.8858V22.2152C70.8858 19.1899 69.7086 17.7468 66.9745 17.7468C66.3966 17.6965 65.8144 17.7608 65.2614 17.9361C64.7085 18.1114 64.1956 18.3941 63.7522 18.7681C63.3088 19.1421 62.9436 19.6 62.6776 20.1156C62.4117 20.6311 62.2501 21.194 62.2023 21.7721C62.1707 22.0413 62.1707 22.3132 62.2023 22.5823V35.4684H56.0884V13.1646Z" fill="white"/>
<path d="M44.2657 7.55695C44.2435 6.9461 44.403 6.3424 44.7241 5.82228C45.0452 5.30217 45.5134 4.88902 46.0695 4.63514C46.6255 4.38127 47.2444 4.29809 47.8477 4.39613C48.451 4.49418 49.0117 4.76904 49.4587 5.18591C49.9058 5.60279 50.2191 6.14293 50.3589 6.73796C50.4988 7.33299 50.459 7.95614 50.2445 8.52852C50.03 9.10091 49.6505 9.59678 49.1541 9.95335C48.6576 10.3099 48.0665 10.5112 47.4556 10.5316H47.3417C46.9625 10.5556 46.5823 10.5045 46.223 10.3813C45.8636 10.258 45.5321 10.065 45.2475 9.81332C44.9629 9.56164 44.7308 9.25625 44.5645 8.91467C44.3982 8.57308 44.3009 8.20202 44.2784 7.82277C44.2679 7.73457 44.2636 7.64574 44.2657 7.55695ZM44.2657 13.1645H50.4556V35.4683H44.291L44.2657 13.1645Z" fill="white"/>
<path d="M20.9365 4.98737H40.5061V10.3924H27.8479V18.4557H37.8732V23.6583H27.8353V35.4684H20.9365V4.98737Z" fill="white"/>
<path d="M9.12658 14.962C9.12658 16.8734 9.12658 19.2025 6.49367 20.1519C9.18987 21.0759 9.12658 23.038 9.12658 25.0886V32.6835C9.12658 34.1266 9.70886 35 10.7468 35.2152C10.9749 35.2921 11.2152 35.3265 11.4557 35.3165H13.9873V40.3797H9.81013C5.35443 40.3797 2.89873 37.8481 2.89873 33.1519V24.1646C2.86713 23.7032 2.66369 23.2704 2.32857 22.9517C1.99345 22.6329 1.55101 22.4515 1.08861 22.443H0V18H1.08861C1.56024 17.9938 2.01136 17.8062 2.3484 17.4763C2.68544 17.1463 2.88251 16.6992 2.89873 16.2278V7.11392C2.89873 2.49367 5.3038 0 9.81013 0H14.0253V4.98734H11.4937C11.2529 4.98804 11.0137 5.02648 10.7848 5.10127C9.74684 5.36709 9.16456 6.22785 9.16456 7.63291L9.12658 14.962Z" fill="white"/>
</g>
<defs>
<clipPath id="clip0_1156_3125">
<rect width="200" height="40.5063" fill="white"/>
</clipPath>
</defs>
</svg>
