<svg width="34" height="32" viewBox="0 0 34 32" fill="none" xmlns="http://www.w3.org/2000/svg">
<path d="M33.3053 16.0001C33.3053 24.8889 25.8809 32.0001 16.8933 32.0001C7.90581 32.0001 0.351074 24.8889 0.351074 16.0001C0.351074 7.11118 7.77555 6.10352e-05 16.763 6.10352e-05C25.7506 6.10352e-05 33.3053 7.11118 33.3053 16.0001Z" fill="url(#paint0_linear_1156_3146)"/>
<path d="M4.35773 17.1931C4.36455 17.1356 4.40641 17.0952 4.45916 17.0952C4.50999 17.0952 4.55212 17.1355 4.56001 17.1928L4.77913 18.5838L4.56001 19.9511C4.55187 20.0085 4.51025 20.0484 4.45916 20.0484C4.40639 20.0484 4.36455 20.0083 4.35773 19.9506L4.17285 18.5838L4.35773 17.1931Z" fill="white"/>
<path d="M5.39228 16.2343C5.44557 16.2343 5.48879 16.2755 5.49751 16.3353L5.77995 18.5839L5.49723 20.7831C5.48854 20.8427 5.44529 20.8842 5.39228 20.8842C5.33847 20.8842 5.29414 20.8416 5.28707 20.7826L5.03857 18.5839L5.28707 16.3353C5.2944 16.2769 5.33872 16.2343 5.39228 16.2343Z" fill="white"/>
<path d="M9.21697 14.4488C9.22176 14.3439 9.30615 14.2612 9.408 14.2612C9.50946 14.2612 9.59345 14.3439 9.59944 14.4488L9.82323 18.5857L9.59944 21.2595V21.2587C9.59345 21.3634 9.50946 21.4461 9.408 21.4461C9.30615 21.4461 9.22206 21.3637 9.21697 21.2592L9.01904 18.5857L9.21697 14.4488Z" fill="white"/>
<path d="M7.23563 15.8437C7.24191 15.7609 7.3058 15.6991 7.38409 15.6991C7.46157 15.6991 7.52545 15.761 7.53227 15.8431L7.78565 18.5847L7.53227 21.2366C7.52545 21.3187 7.46157 21.3806 7.38409 21.3806C7.30577 21.3806 7.24161 21.3187 7.23563 21.2366L7.0127 18.5847L7.23563 15.8437Z" fill="white"/>
<path d="M11.6994 21.2156C11.6942 21.3448 11.5915 21.4458 11.465 21.4458C11.3378 21.4458 11.2347 21.3446 11.2307 21.2164L11.0586 18.5869L11.2307 13.0797C11.2348 12.9505 11.3378 12.8492 11.4653 12.8492C11.5918 12.8492 11.6945 12.9502 11.6997 13.0794L11.8935 18.5871L11.6994 21.2156Z" fill="white"/>
<path d="M15.9965 21.1418C15.9933 21.3163 15.8497 21.4582 15.6758 21.4582C15.5017 21.4582 15.3576 21.3163 15.3549 21.1434C15.3549 21.1434 15.2339 18.5906 15.2339 18.5865L15.3549 12.228C15.3576 12.0533 15.5014 11.9114 15.6757 11.9114C15.8497 11.9114 15.9935 12.0535 15.9965 12.2278L16.1319 18.5887L15.9965 21.1418Z" fill="white"/>
<path d="M13.8322 21.1744C13.8281 21.3279 13.706 21.4483 13.5546 21.4483C13.402 21.4483 13.28 21.3279 13.2767 21.176L13.1299 18.588L13.2765 13.0401C13.2797 12.8867 13.4018 12.7665 13.5543 12.7665C13.7058 12.7665 13.8278 12.8867 13.8319 13.0401L13.9969 18.5877L13.8322 21.1763V21.1744Z" fill="white"/>
<path d="M8.56198 21.2587C8.55519 21.3526 8.48229 21.424 8.39232 21.424C8.30095 21.424 8.22837 21.3526 8.22239 21.2584L8.01221 18.5846L8.22239 16.0421C8.22809 15.9476 8.30095 15.8762 8.39232 15.8762C8.48259 15.8762 8.55539 15.9471 8.56198 16.041L8.80065 18.5846L8.56198 21.2587Z" fill="white"/>
<path d="M6.51087 21.155C6.50325 21.2261 6.44997 21.2776 6.3842 21.2776C6.31729 21.2776 6.26401 21.2258 6.25747 21.1545L6.02148 18.5842L6.25747 15.9164C6.26427 15.8453 6.31755 15.7936 6.38417 15.7936C6.44995 15.7936 6.50323 15.8451 6.51112 15.9164L6.77893 18.5842L6.51087 21.155Z" fill="white"/>
<path d="M14.3115 13.2432C14.3147 13.0773 14.4467 12.9478 14.6111 12.9478C14.7753 12.9478 14.9064 13.0773 14.9102 13.2426L15.0603 18.5885L14.9102 21.1604V21.1583C14.9064 21.3241 14.7753 21.4534 14.6111 21.4534C14.4464 21.4534 14.3148 21.3239 14.3115 21.1602L14.1777 18.5882L14.3115 13.2432Z" fill="white"/>
<path d="M10.6455 21.2422C10.6401 21.3594 10.5463 21.4511 10.4326 21.4511C10.3179 21.4511 10.2244 21.3594 10.2198 21.2433L10.0347 18.5865L10.2195 13.5035C10.2244 13.3863 10.3179 13.2946 10.4326 13.2946C10.5463 13.2946 10.6398 13.386 10.6455 13.5035L10.8543 18.5865L10.6455 21.2422Z" fill="white"/>
<path d="M12.7616 21.2005V21.2001C12.7565 21.3406 12.6447 21.4509 12.5058 21.4509C12.3662 21.4509 12.2537 21.3402 12.2499 21.2002L12.0903 18.587L12.2496 12.8942C12.2534 12.7525 12.3659 12.6419 12.5058 12.6419C12.6447 12.6419 12.7572 12.7528 12.7616 12.8942L12.9409 18.5873L12.7616 21.1992V21.2001C12.7616 21.1999 12.7616 21.1996 12.7616 21.1994V21.2005Z" fill="white"/>
<path d="M25.1119 15.5448C25.4817 15.391 25.8875 15.3056 26.313 15.3056C28.0278 15.3056 29.4178 16.6848 29.4179 18.3858C29.4179 20.0866 28.0275 21.4655 26.3128 21.4655C26.2573 21.4655 17.7134 21.4612 17.7055 21.4604C17.52 21.4418 17.3726 21.2848 17.3701 21.0963V11.3223C17.3723 11.1427 17.4347 11.05 17.6691 10.9601C18.272 10.7289 18.9549 10.5921 19.6554 10.5921C22.518 10.5921 24.8648 12.7692 25.1119 15.5448Z" fill="white"/>
<path d="M16.3932 11.6521C16.3959 11.4655 16.5493 11.3137 16.7361 11.3137C16.9223 11.3137 17.0756 11.4655 17.0783 11.6516L17.2309 18.5895L17.0783 21.1076V21.1047C17.0756 21.2912 16.9223 21.4429 16.7361 21.4429C16.5493 21.4429 16.3959 21.2912 16.3935 21.1074L16.2529 18.5895L16.3932 11.6521Z" fill="white"/>
<defs>
<linearGradient id="paint0_linear_1156_3146" x1="16.8282" y1="6.10352e-05" x2="16.8282" y2="32.0001" gradientUnits="userSpaceOnUse">
<stop stop-color="#FF7602"/>
<stop offset="1" stop-color="#FF3502"/>
</linearGradient>
</defs>
</svg>
