<svg width="196" height="32" viewBox="0 0 196 32" fill="none" xmlns="http://www.w3.org/2000/svg">
<g clip-path="url(#clip0_1156_3109)">
<path fill-rule="evenodd" clip-rule="evenodd" d="M118.251 22.8659H116.332V8.20227H121.421C122.686 8.20227 123.781 8.61528 124.705 9.44126C125.63 10.2673 126.092 11.3083 126.092 12.5645C126.092 13.8206 125.63 14.8616 124.705 15.6877C123.781 16.5137 122.686 16.9267 121.421 16.9267H118.251V22.8659ZM118.251 15.1245H121.462C122.269 15.1245 122.916 14.8582 123.402 14.3258C123.889 13.7933 124.132 13.2061 124.132 12.5645C124.132 11.9228 123.889 11.3357 123.402 10.8032C122.916 10.2707 122.269 10.0045 121.462 10.0045H118.251V15.1245ZM127.684 14.0391C128.671 13.015 129.929 12.503 131.458 12.503C132.988 12.503 134.246 13.0116 135.233 14.0288C136.22 15.046 136.714 16.3191 136.714 17.8483C136.714 19.3774 136.22 20.6506 135.233 21.6678C134.246 22.685 132.988 23.1935 131.458 23.1935C129.929 23.1935 128.671 22.685 127.684 21.6678C126.697 20.6506 126.203 19.3774 126.203 17.8483C126.203 16.3191 126.697 15.0494 127.684 14.0391ZM129.102 20.4902C129.769 21.1456 130.555 21.4733 131.458 21.4733C132.362 21.4733 133.144 21.1422 133.805 20.4799C134.465 19.8178 134.795 18.9406 134.795 17.8483C134.795 16.756 134.465 15.8788 133.805 15.2166C133.144 14.5545 132.362 14.2233 131.458 14.2233C130.555 14.2233 129.772 14.5545 129.112 15.2166C128.452 15.8788 128.122 16.756 128.122 17.8483C128.122 18.9406 128.448 19.8212 129.102 20.4902ZM142.497 23.1935C141.176 23.1935 140.036 22.6815 139.077 21.6575C138.118 20.6336 137.637 19.3638 137.637 17.8483C137.637 16.3327 138.118 15.0631 139.077 14.0391C140.036 13.015 141.176 12.503 142.497 12.503C143.275 12.503 143.974 12.6669 144.593 12.9945C145.212 13.3223 145.674 13.7318 145.98 14.2233H146.063L145.98 12.8307V8.20227H147.899V22.8659H146.063V21.4733H145.98C145.674 21.9647 145.212 22.3743 144.593 22.7021C143.974 23.0297 143.275 23.1935 142.497 23.1935ZM142.81 21.4733C143.713 21.4733 144.482 21.1456 145.114 20.4902C145.747 19.8349 146.063 18.9542 146.063 17.8483C146.063 16.7424 145.747 15.8618 145.114 15.2064C144.482 14.5511 143.713 14.2233 142.81 14.2233C141.92 14.2233 141.155 14.5545 140.516 15.2166C139.876 15.8788 139.556 16.756 139.556 17.8483C139.556 18.9406 139.876 19.8178 140.516 20.4799C141.155 21.1422 141.92 21.4733 142.81 21.4733ZM154.557 23.1935C153.029 23.1935 151.77 22.685 150.783 21.6678C149.796 20.6506 149.302 19.3774 149.302 17.8483C149.302 16.3191 149.796 15.046 150.783 14.0288C151.77 13.0116 153.029 12.503 154.557 12.503C155.698 12.503 156.643 12.7761 157.394 13.3223C158.145 13.8684 158.694 14.5578 159.041 15.3907L157.29 16.1075C156.761 14.8514 155.809 14.2233 154.433 14.2233C153.585 14.2233 152.837 14.5647 152.191 15.2473C151.544 15.93 151.221 16.7969 151.221 17.8483C151.221 18.8996 151.544 19.7666 152.191 20.4492C152.837 21.1319 153.585 21.4733 154.433 21.4733C155.865 21.4733 156.852 20.8452 157.394 19.5891L159.104 20.3058C158.756 21.1251 158.197 21.8112 157.425 22.3641C156.653 22.9171 155.698 23.1935 154.557 23.1935ZM163.656 23.1935C162.572 23.1935 161.665 22.8863 160.935 22.272C160.205 21.6575 159.84 20.8452 159.84 19.8349C159.84 18.7425 160.271 17.8859 161.133 17.2646C161.995 16.6434 163.059 16.3327 164.324 16.3327C165.45 16.3327 166.374 16.5376 167.097 16.9472V16.6605C167.097 15.9232 166.841 15.3327 166.326 14.889C165.811 14.4452 165.179 14.2233 164.429 14.2233C163.872 14.2233 163.368 14.353 162.916 14.6125C162.465 14.8719 162.155 15.2269 161.988 15.6774L160.236 14.9401C160.472 14.3394 160.939 13.7831 161.634 13.2711C162.329 12.759 163.246 12.503 164.386 12.503C165.693 12.503 166.778 12.8785 167.64 13.6294C168.502 14.3804 168.933 15.4385 168.933 16.8038V22.8659H167.097V21.4733H167.014C166.249 22.6202 165.13 23.1935 163.656 23.1935ZM163.969 21.4733C164.762 21.4733 165.481 21.1831 166.128 20.6028C166.774 20.0226 167.097 19.3365 167.097 18.5446C166.556 18.1077 165.742 17.8893 164.657 17.8893C163.726 17.8893 163.024 18.0872 162.551 18.4832C162.079 18.8791 161.842 19.3433 161.842 19.8758C161.842 20.3673 162.058 20.7565 162.489 21.0432C162.92 21.3299 163.413 21.4733 163.969 21.4733ZM174.549 23.1935C173.409 23.1935 172.467 22.9205 171.723 22.3743C170.979 21.8282 170.433 21.1456 170.086 20.3264L171.796 19.63C172.339 20.8862 173.263 21.5142 174.57 21.5142C175.168 21.5142 175.658 21.3845 176.04 21.1251C176.423 20.8657 176.614 20.5243 176.614 20.1011C176.614 19.4457 176.148 19.002 175.216 18.7699L173.151 18.2783C172.498 18.1145 171.879 17.804 171.295 17.3465C170.712 16.8891 170.42 16.2714 170.42 15.4931C170.42 14.6056 170.819 13.8854 171.619 13.3324C172.418 12.7796 173.367 12.503 174.466 12.503C175.369 12.503 176.176 12.7044 176.885 13.1072C177.594 13.51 178.102 14.0869 178.408 14.8378L176.739 15.5136C176.363 14.6261 175.585 14.1824 174.403 14.1824C173.833 14.1824 173.353 14.2985 172.964 14.5305C172.574 14.7627 172.38 15.0767 172.38 15.4726C172.38 16.046 172.832 16.4352 173.736 16.64L175.759 17.111C176.718 17.3295 177.427 17.7049 177.886 18.2374C178.345 18.7699 178.574 19.3707 178.574 20.0397C178.574 20.9407 178.199 21.6917 177.448 22.2924C176.698 22.8932 175.731 23.1935 174.549 23.1935ZM184.316 23.0297C183.245 23.0297 182.428 22.7499 181.865 22.1901C181.301 21.6302 181.02 20.8384 181.02 19.8144V14.5511H179.227V12.8307H181.02V9.75871H182.939V12.8307H185.442V14.5511H182.939V19.671C182.939 20.7633 183.398 21.3094 184.316 21.3094C184.663 21.3094 184.955 21.2548 185.191 21.1456L185.859 22.7634C185.442 22.941 184.927 23.0297 184.316 23.0297ZM191.036 23.1935C189.896 23.1935 188.955 22.9205 188.211 22.3743C187.467 21.8282 186.921 21.1456 186.574 20.3264L188.284 19.63C188.826 20.8862 189.75 21.5142 191.058 21.5142C191.656 21.5142 192.145 21.3845 192.528 21.1251C192.911 20.8657 193.101 20.5243 193.101 20.1011C193.101 19.4457 192.636 19.002 191.704 18.7699L189.639 18.2783C188.986 18.1145 188.367 17.804 187.783 17.3465C187.199 16.8891 186.907 16.2714 186.907 15.4931C186.907 14.6056 187.307 13.8854 188.107 13.3324C188.906 12.7796 189.855 12.503 190.954 12.503C191.857 12.503 192.664 12.7044 193.373 13.1072C194.082 13.51 194.59 14.0869 194.895 14.8378L193.227 15.5136C192.851 14.6261 192.073 14.1824 190.89 14.1824C190.32 14.1824 189.841 14.2985 189.452 14.5305C189.062 14.7627 188.868 15.0767 188.868 15.4726C188.868 16.046 189.319 16.4352 190.224 16.64L192.246 17.111C193.206 17.3295 193.915 17.7049 194.374 18.2374C194.832 18.7699 195.062 19.3707 195.062 20.0397C195.062 20.9407 194.686 21.6917 193.936 22.2924C193.185 22.8932 192.219 23.1935 191.036 23.1935Z" fill="white"/>
<path d="M43.4658 14.7869C43.4658 10.147 47.4252 6.38702 52.1503 6.38702C54.7573 6.38702 56.6148 7.39502 58.016 8.70701L56.354 10.323C55.3602 9.395 54.0078 8.67502 52.1503 8.67502C48.7124 8.67502 46.024 11.395 46.024 14.771C46.024 18.147 48.7124 20.8669 52.1503 20.8669C54.3825 20.8669 55.6534 19.9869 56.4681 19.1869C57.1362 18.531 57.5761 17.587 57.739 16.3069H52.1503V14.019H60.0201C60.1015 14.435 60.1505 14.9149 60.1505 15.459C60.1505 17.187 59.6779 19.3149 58.13 20.819C56.6148 22.3549 54.6921 23.1709 52.1503 23.1709C47.4252 23.1709 43.4658 19.411 43.4658 14.7869ZM66.4234 12.467C69.4703 12.467 71.9469 14.739 71.9469 17.8749C71.9469 20.9949 69.4703 23.2829 66.4234 23.2829C63.3766 23.2829 60.8999 20.9949 60.8999 17.8749C60.8999 14.739 63.3766 12.467 66.4234 12.467ZM66.4234 21.1389C68.0854 21.1389 69.5355 19.795 69.5355 17.859C69.5355 15.907 68.0854 14.579 66.4234 14.579C64.7452 14.579 63.3114 15.907 63.3114 17.859C63.3114 19.795 64.7615 21.1389 66.4234 21.1389ZM78.4807 12.467C81.5276 12.467 84.0042 14.739 84.0042 17.8749C84.0042 20.9949 81.5276 23.2829 78.4807 23.2829C75.4338 23.2829 72.9572 20.9949 72.9572 17.8749C72.9572 14.739 75.4338 12.467 78.4807 12.467ZM78.4807 21.1389C80.1426 21.1389 81.5927 19.795 81.5927 17.859C81.5927 15.907 80.1589 14.579 78.4807 14.579C76.8024 14.579 75.3686 15.907 75.3686 17.859C75.3686 19.795 76.8187 21.1389 78.4807 21.1389ZM93.2753 12.643H95.589V22.3549C95.589 26.355 93.1938 27.9869 90.3586 27.9869C87.6866 27.9869 86.0734 26.227 85.4706 24.787L87.5725 23.9229C87.9472 24.8029 88.8597 25.843 90.3423 25.843C92.151 25.843 93.2753 24.739 93.2753 22.675V21.8909H93.1938C92.6561 22.547 91.6133 23.1229 90.2935 23.1229C87.5399 23.1229 85.0144 20.7549 85.0144 17.731C85.0144 14.675 87.5399 12.307 90.2935 12.307C91.6133 12.307 92.6561 12.8829 93.1938 13.523H93.2753V12.643ZM90.5053 20.9949C92.151 20.9949 93.4544 19.635 93.4381 17.731C93.4381 15.827 92.151 14.435 90.5053 14.435C88.8434 14.435 87.4421 15.827 87.4421 17.731C87.4421 19.619 88.8434 20.9949 90.5053 20.9949ZM97.2347 22.9149V7.02702H99.6458V22.9149H97.2347ZM106.278 21.1389C107.516 21.1389 108.363 20.5469 108.998 19.6509L110.872 20.8829C110.253 21.7629 108.803 23.2829 106.278 23.2829C103.149 23.2829 100.819 20.899 100.819 17.8749C100.819 14.6589 103.182 12.467 106.017 12.467C108.868 12.467 110.269 14.691 110.725 15.907L110.97 16.515L103.605 19.507C104.176 20.5789 105.039 21.1389 106.278 21.1389ZM106.099 14.547C104.86 14.547 103.149 15.619 103.214 17.6989L108.135 15.699C107.874 15.011 107.059 14.547 106.099 14.547Z" fill="white"/>
<path d="M14.6196 10.0001V14.8492V16.7874V21.6365H18.6931V16.7874V14.8492V10.0001H14.6196Z" fill="#FF7602"/>
<path d="M2.40343 16.9124C3.52828 16.9124 4.44015 16.017 4.44015 14.9124C4.44015 13.8078 3.52828 12.9124 2.40343 12.9124C1.27857 12.9124 0.366699 13.8078 0.366699 14.9124C0.366699 16.017 1.27857 16.9124 2.40343 16.9124Z" fill="#0066D9"/>
<path d="M2.40343 19.0944C3.52828 19.0944 4.44015 18.199 4.44015 17.0944C4.44015 15.9898 3.52828 15.0944 2.40343 15.0944C1.27857 15.0944 0.366699 15.9898 0.366699 17.0944C0.366699 18.199 1.27857 19.0944 2.40343 19.0944Z" fill="#0066D9"/>
<path d="M4.44015 14.9128H0.366699V17.0946H4.44015V14.9128Z" fill="#0066D9"/>
<path d="M30.9171 19.0944C32.042 19.0944 32.9538 18.199 32.9538 17.0944C32.9538 15.9898 32.042 15.0944 30.9171 15.0944C29.7923 15.0944 28.8804 15.9898 28.8804 17.0944C28.8804 18.199 29.7923 19.0944 30.9171 19.0944Z" fill="#4285F4"/>
<path d="M30.9171 16.9124C32.042 16.9124 32.9538 16.017 32.9538 14.9124C32.9538 13.8078 32.042 12.9124 30.9171 12.9124C29.7923 12.9124 28.8804 13.8078 28.8804 14.9124C28.8804 16.017 29.7923 16.9124 30.9171 16.9124Z" fill="#4285F4"/>
<path d="M28.8804 17.0949H32.9538V14.913H28.8804V17.0949Z" fill="#4285F4"/>
<path d="M9.43857 23.4583C10.5634 23.4583 11.4753 22.5628 11.4753 21.4583C11.4753 20.3537 10.5634 19.4583 9.43857 19.4583C8.31372 19.4583 7.40186 20.3537 7.40186 21.4583C7.40186 22.5628 8.31372 23.4583 9.43857 23.4583Z" fill="#EA4335"/>
<path d="M9.43857 25.6403C10.5634 25.6403 11.4753 24.7449 11.4753 23.6403C11.4753 22.5357 10.5634 21.6402 9.43857 21.6402C8.31372 21.6402 7.40186 22.5357 7.40186 23.6403C7.40186 24.7449 8.31372 25.6403 9.43857 25.6403Z" fill="#EA4335"/>
<path d="M11.4753 21.4586H7.40186V23.6404H11.4753V21.4586Z" fill="#EA4335"/>
<path d="M9.43857 10.3672C10.5634 10.3672 11.4753 9.47174 11.4753 8.3672C11.4753 7.26262 10.5634 6.36719 9.43857 6.36719C8.31372 6.36719 7.40186 7.26262 7.40186 8.3672C7.40186 9.47174 8.31372 10.3672 9.43857 10.3672Z" fill="#EA4335"/>
<path d="M9.43857 17.4578C10.5634 17.4578 11.4753 16.5624 11.4753 15.4578C11.4753 14.3533 10.5634 13.4578 9.43857 13.4578C8.31372 13.4578 7.40186 14.3533 7.40186 15.4578C7.40186 16.5624 8.31372 17.4578 9.43857 17.4578Z" fill="#EA4335"/>
<path d="M11.4753 8.36694H7.40186V15.5034H11.4753V8.36694Z" fill="#EA4335"/>
<path d="M23.8809 12.5492C25.0058 12.5492 25.9176 11.6537 25.9176 10.5492C25.9176 9.44457 25.0058 8.54913 23.8809 8.54913C22.7561 8.54913 21.8442 9.44457 21.8442 10.5492C21.8442 11.6537 22.7561 12.5492 23.8809 12.5492Z" fill="#34A853"/>
<path d="M23.8809 10.3672C25.0058 10.3672 25.9176 9.47174 25.9176 8.3672C25.9176 7.26262 25.0058 6.36719 23.8809 6.36719C22.7561 6.36719 21.8442 7.26262 21.8442 8.3672C21.8442 9.47174 22.7561 10.3672 23.8809 10.3672Z" fill="#34A853"/>
<path d="M21.8442 10.5489H25.9177V8.36707H21.8442V10.5489Z" fill="#34A853"/>
<path d="M16.6598 6.18545C17.7847 6.18545 18.6965 5.29002 18.6965 4.18544C18.6965 3.08086 17.7847 2.18542 16.6598 2.18542C15.5349 2.18542 14.623 3.08086 14.623 4.18544C14.623 5.29002 15.5349 6.18545 16.6598 6.18545Z" fill="#FF7602"/>
<path d="M16.6598 4.0035C17.7847 4.0035 18.6965 3.10806 18.6965 2.00349C18.6965 0.898916 17.7847 0.003479 16.6598 0.003479C15.5349 0.003479 14.623 0.898916 14.623 2.00349C14.623 3.10806 15.5349 4.0035 16.6598 4.0035Z" fill="#FF7602"/>
<path d="M14.623 4.18526H18.6965V2.00342H14.623V4.18526Z" fill="#FF7602"/>
<path d="M16.6598 32.0035C17.7847 32.0035 18.6965 31.1081 18.6965 30.0035C18.6965 28.8989 17.7847 28.0035 16.6598 28.0035C15.5349 28.0035 14.623 28.8989 14.623 30.0035C14.623 31.1081 15.5349 32.0035 16.6598 32.0035Z" fill="#FF7602"/>
<path d="M16.6598 29.822C17.7847 29.822 18.6965 28.9266 18.6965 27.822C18.6965 26.7174 17.7847 25.822 16.6598 25.822C15.5349 25.822 14.623 26.7174 14.623 27.822C14.623 28.9266 15.5349 29.822 16.6598 29.822Z" fill="#FF7602"/>
<path d="M14.623 30.0037H18.6965V27.8219H14.623V30.0037Z" fill="#FF7602"/>
<path d="M23.8809 25.6403C25.0058 25.6403 25.9176 24.7449 25.9176 23.6403C25.9176 22.5357 25.0058 21.6402 23.8809 21.6402C22.7561 21.6402 21.8442 22.5357 21.8442 23.6403C21.8442 24.7449 22.7561 25.6403 23.8809 25.6403Z" fill="#34A853"/>
<path d="M23.8809 18.5492C25.0058 18.5492 25.9176 17.6537 25.9176 16.5491C25.9176 15.4446 25.0058 14.5491 23.8809 14.5491C22.7561 14.5491 21.8442 15.4446 21.8442 16.5491C21.8442 17.6537 22.7561 18.5492 23.8809 18.5492Z" fill="#34A853"/>
<path d="M21.8442 23.6401H25.9177V16.5491H21.8442V23.6401Z" fill="#34A853"/>
<path d="M16.6598 12.1854C17.7847 12.1854 18.6965 11.2899 18.6965 10.1854C18.6965 9.08084 17.7847 8.18536 16.6598 8.18536C15.5349 8.18536 14.623 9.08084 14.623 10.1854C14.623 11.2899 15.5349 12.1854 16.6598 12.1854Z" fill="#FF7602"/>
<path d="M16.6598 23.822C17.7847 23.822 18.6965 22.9266 18.6965 21.822C18.6965 20.7175 17.7847 19.822 16.6598 19.822C15.5349 19.822 14.623 20.7175 14.623 21.822C14.623 22.9266 15.5349 23.822 16.6598 23.822Z" fill="#FF7602"/>
</g>
<defs>
<clipPath id="clip0_1156_3109">
<rect width="195.728" height="32" fill="white"/>
</clipPath>
</defs>
</svg>
