<svg width="33" height="32" viewBox="0 0 33 32" fill="none" xmlns="http://www.w3.org/2000/svg">
<path d="M31.7458 27.6775C31.2869 28.7544 30.5601 29.6996 29.6325 30.4259C28.9545 30.9515 28.1831 31.3477 27.3577 31.5942C26.076 31.8996 24.7586 32.0335 23.4407 31.9926H8.91679C7.60334 32.0344 6.2902 31.9005 5.01324 31.5942C4.17794 31.352 3.39686 30.9555 2.71149 30.4259C1.81108 29.7209 1.09938 28.8092 0.638574 27.7704C0.141756 26.2818 -0.0682538 24.7147 0.0193896 23.1499V8.78385C-0.052211 7.24919 0.16222 5.71461 0.652033 4.25628C1.10526 3.20927 1.8125 2.28824 2.71149 1.57426C3.39283 1.0461 4.16921 0.649669 4.99978 0.405863C6.27673 0.0996665 7.58988 -0.034327 8.90334 0.00754389H23.4811C24.7989 -0.0334149 26.1164 0.100558 27.3981 0.405863C28.2092 0.656888 28.9667 1.05295 29.6325 1.57426C30.533 2.2792 31.2446 3.1909 31.7054 4.22973C32.194 5.6973 32.4039 7.24116 32.3247 8.78385V23.1499C32.4136 24.6813 32.2174 26.2158 31.7458 27.6775Z" fill="url(#paint0_linear_1156_3206)"/>
<path d="M18.6358 18.6643C18.2824 18.3436 17.8673 18.0961 17.4151 17.9363C16.9629 17.7767 16.4828 17.7082 16.0032 17.7348C15.5287 17.7122 15.0542 17.7826 14.6074 17.9422C14.1607 18.1017 13.7505 18.3472 13.4007 18.6643C13.1223 18.936 12.9525 19.2973 12.922 19.6823C12.8275 20.575 12.8275 21.475 12.922 22.3675C13.0117 23.4594 13.1912 24.9052 13.4305 26.3806C13.5245 27.0628 13.6644 27.7381 13.8493 28.402C14.0154 28.8043 14.3093 29.1426 14.6869 29.3661C15.0645 29.5895 15.5054 29.6861 15.9435 29.6413C16.3835 29.687 16.8267 29.591 17.2069 29.3677C17.5871 29.1443 17.8837 28.8055 18.0524 28.402C18.2374 27.7381 18.3773 27.0628 18.4713 26.3806C18.6956 24.9052 18.8751 23.4298 18.9649 22.3675C19.0593 21.475 19.0593 20.575 18.9649 19.6823C18.976 19.316 18.8599 18.9567 18.6358 18.6643ZM13.1015 13.6627C13.1015 14.2463 13.2769 14.8168 13.6056 15.3021C13.9344 15.7873 14.4016 16.1655 14.9482 16.3889C15.4948 16.6123 16.0963 16.6706 16.6766 16.5568C17.2569 16.443 17.79 16.1619 18.2084 15.7492C18.6267 15.3366 18.9116 14.8107 19.027 14.2384C19.1425 13.6659 19.0833 13.0726 18.8568 12.5335C18.6304 11.9943 18.247 11.5334 17.755 11.2092C17.2631 10.8849 16.6846 10.7119 16.093 10.7119C15.2996 10.7119 14.5387 11.0228 13.9777 11.5762C13.4167 12.1296 13.1015 12.8801 13.1015 13.6627ZM16.0032 2.19881C13.0218 2.21233 10.1407 3.26388 7.86848 5.16803C5.59619 7.07218 4.07853 9.70661 3.58314 12.6067C3.08775 15.5069 3.64646 18.4863 5.16073 21.0198C6.67499 23.5533 9.04756 25.478 11.86 26.4545C11.8883 26.4618 11.918 26.4623 11.9465 26.4559C11.9751 26.4494 12.0016 26.436 12.0236 26.4172C12.0458 26.3982 12.0629 26.3743 12.0735 26.3473C12.0841 26.3204 12.0878 26.2913 12.0844 26.2626C12.0096 25.8347 11.9497 25.4069 11.8899 24.9938C11.884 24.9194 11.857 24.8482 11.8121 24.7882C11.7671 24.7282 11.706 24.6819 11.6356 24.6544C9.31878 23.6399 7.4264 21.8698 6.27656 19.6415C5.12673 17.4131 4.78944 14.8622 5.32139 12.4175C5.85334 9.97278 7.2221 7.78311 9.19776 6.21641C11.1733 4.64971 13.6354 3.80143 16.1703 3.8141C18.7052 3.82678 21.1584 4.69962 23.1178 6.28599C25.0772 7.87236 26.4234 10.0756 26.9302 12.5255C27.437 14.9754 27.0736 17.5228 25.9009 19.7396C24.7282 21.9563 22.8177 23.7075 20.4906 24.6987C20.4202 24.7262 20.359 24.7724 20.3141 24.8324C20.2692 24.8925 20.2422 24.9637 20.2363 25.038C20.2363 25.4511 20.1166 25.879 20.0418 26.3069C20.0384 26.3355 20.0421 26.3647 20.0527 26.3916C20.0633 26.4185 20.0804 26.4425 20.1026 26.4613C20.1246 26.4803 20.1511 26.4936 20.1797 26.5001C20.2081 26.5066 20.2379 26.5061 20.2662 26.4987C23.1216 25.5425 25.5371 23.612 27.0775 21.0548C28.6178 18.4976 29.1815 15.4819 28.6674 12.551C28.1532 9.62002 26.5948 6.96658 24.273 5.0686C21.9511 3.17061 19.0184 2.15291 16.0032 2.19881ZM15.7789 7.92333C17.1749 7.86923 18.5544 8.23739 19.7323 8.97853C20.9101 9.71968 21.8301 10.7983 22.3688 12.0698C22.9076 13.3413 23.0393 14.745 22.7463 16.0924C22.4535 17.4399 21.7498 18.6668 20.7299 19.6086C20.6761 19.6632 20.6339 19.7279 20.6056 19.7988C20.5773 19.8698 20.5637 19.9455 20.5654 20.0217C20.5976 20.5129 20.5976 21.0058 20.5654 21.4971C20.5664 21.5276 20.5754 21.5575 20.5916 21.5836C20.6077 21.6097 20.6305 21.6313 20.6575 21.6461C20.6847 21.661 20.7153 21.6687 20.7463 21.6684C20.7773 21.6681 20.8077 21.6599 20.8346 21.6447C22.3337 20.6383 23.4663 19.1846 24.0663 17.4967C24.6663 15.8089 24.7021 13.9757 24.1684 12.2663C23.6346 10.5569 22.5595 9.06124 21.1007 7.99885C19.6419 6.9364 17.8764 6.36312 16.0631 6.36312C14.2498 6.36312 12.4842 6.9364 11.0255 7.99885C9.56673 9.06124 8.49159 10.5569 7.95783 12.2663C7.42409 13.9757 7.45985 15.8089 8.05985 17.4967C8.65984 19.1846 9.79253 20.6383 11.2916 21.6447C11.3173 21.6612 11.3471 21.6704 11.3778 21.6711C11.4085 21.6719 11.4388 21.6641 11.4652 21.6487C11.4916 21.6334 11.5133 21.6111 11.5275 21.5843C11.5417 21.5575 11.5482 21.5272 11.5459 21.4971C11.5459 20.9955 11.5459 20.5381 11.5459 20.0217C11.5536 19.9449 11.5428 19.8674 11.5141 19.7955C11.4855 19.7237 11.44 19.6596 11.3813 19.6086C10.3983 18.6902 9.71252 17.5058 9.41012 16.2041C9.10772 14.9024 9.20227 13.5415 9.68184 12.2927C10.1614 11.0438 11.0046 9.9627 12.1054 9.18525C13.2062 8.40789 14.5155 7.96882 15.8687 7.92333H15.7789Z" fill="white"/>
<defs>
<linearGradient id="paint0_linear_1156_3206" x1="16.199" y1="0.00754389" x2="16.199" y2="31.9262" gradientUnits="userSpaceOnUse">
<stop stop-color="#F452FF"/>
<stop offset="1" stop-color="#832BC1"/>
</linearGradient>
</defs>
</svg>
