<svg width="133" height="15" viewBox="0 0 133 15" fill="none" xmlns="http://www.w3.org/2000/svg">
<path d="M6.24263 6.40021C4.0939 5.88424 3.49915 5.61677 3.49915 4.75681C3.49915 3.89684 3.99796 3.5337 5.41762 3.5337C6.00199 3.53729 6.57899 3.66339 7.11111 3.90373C7.64333 4.14406 8.11871 4.49333 8.50643 4.9288L10.4249 3.01772C9.80562 2.34063 9.04962 1.8016 8.20656 1.43607C7.36341 1.07053 6.45224 0.886667 5.5328 0.896544C2.84686 0.896544 0.659743 2.40617 0.659743 4.87143C0.659743 7.3366 2.40559 8.3495 4.9188 8.9419C7.43212 9.5343 7.96923 9.91649 7.96923 10.853C7.96923 11.7894 7.20186 12.3244 5.59034 12.3244C4.92788 12.3386 4.2707 12.2052 3.66668 11.9341C3.06256 11.663 2.52685 11.261 2.09864 10.7574L0.180176 12.5155C0.812917 13.3152 1.62955 13.9515 2.56126 14.3706C3.49287 14.7898 4.51204 14.9794 5.5328 14.9234C9.25465 14.9234 10.8854 13.1844 10.8854 10.5854C10.8086 7.64237 8.4105 6.89714 6.24263 6.40021ZM18.8088 0.896544C15.0868 0.896544 12.8806 3.76306 12.8806 7.90994C12.8806 12.0568 15.0868 14.9234 18.8088 14.9234C22.5306 14.9234 24.7178 12.0568 24.7178 7.90994C24.7178 3.76306 22.5498 0.896544 18.8088 0.896544ZM18.8088 12.2288C16.6217 12.2288 15.7008 10.3178 15.7008 7.90994C15.7008 5.50204 16.6217 3.59107 18.8088 3.59107C20.9958 3.59107 21.9359 5.50204 21.9359 7.90994C21.9359 10.3178 21.0151 12.2288 18.8088 12.2288ZM35.7683 8.75085C35.7683 10.9294 34.6939 12.2671 32.9673 12.2671C31.2406 12.2671 30.1662 10.8912 30.1662 8.71254V1.06854H27.442V8.71254C27.442 12.6684 29.6675 14.8852 32.9673 14.8852C36.2671 14.8852 38.4926 12.6111 38.4926 8.67433V1.03023H35.7683V8.75085ZM50.2721 6.85893V9.84007C50.0995 9.47703 49.6583 8.80811 49.3321 8.29214L44.4782 1.10675H41.9842V14.7132H44.6894V8.7317V5.75045C44.862 6.09444 45.3033 6.78241 45.6293 7.29839L50.6559 14.7132H53.0923V1.10675H50.2721V6.85893ZM60.7468 1.10675H56.4881V14.7132H60.5554C61.4778 14.7856 62.4052 14.6605 63.2748 14.3463C64.1444 14.0321 64.9372 13.5361 65.5984 12.8917C66.2595 12.2473 66.7751 11.4693 67.1101 10.61C67.4442 9.75078 67.5908 8.83016 67.539 7.90994C67.539 2.9413 64.6609 1.10675 60.7468 1.10675ZM60.5554 12.076H59.251V3.7439H60.69C63.5869 3.7439 64.7756 5.139 64.7756 7.90994C64.8305 8.47381 64.7577 9.04266 64.5642 9.5753C64.3708 10.1079 64.0616 10.5911 63.6577 10.9897C63.2529 11.3885 62.7652 11.6928 62.2287 11.8806C61.6922 12.0685 61.1208 12.1352 60.5554 12.076ZM75.9805 3.59107C76.5 3.56353 77.0166 3.69053 77.4644 3.9559C77.9111 4.22127 78.2701 4.61315 78.4935 5.08164L81.0255 3.9159C80.5967 2.96674 79.8876 2.16983 78.9931 1.63071C78.0996 1.09148 77.0615 0.835489 76.0184 0.896544C72.4692 0.896544 69.9562 3.76306 69.9562 7.90994C69.9562 12.0568 72.3536 14.9234 75.9227 14.9234C76.9807 14.9835 78.0318 14.7213 78.9363 14.1717C79.8408 13.6221 80.5568 12.8111 80.9876 11.8466L78.685 10.4898C78.4586 11.0107 78.0836 11.4535 77.605 11.7628C77.1273 12.0721 76.5689 12.2342 75.9994 12.2288C73.9661 12.2288 72.7764 10.3178 72.7764 7.90994C72.7764 5.50204 73.9461 3.59107 75.9805 3.59107ZM86.1093 1.10675H83.3859V14.7132H91.5971V12.0378H86.1093V1.10675ZM98.7911 0.896544C95.0694 0.896544 92.8626 3.76306 92.8626 7.90994C92.8626 12.0568 95.0694 14.9234 98.7911 14.9234C102.513 14.9234 104.719 12.0568 104.719 7.90994C104.719 3.76306 102.513 0.896544 98.7911 0.896544ZM98.7911 12.2288C96.5842 12.2288 95.6638 10.3178 95.6638 7.90994C95.6638 5.50204 96.5842 3.59107 98.7911 3.59107C100.997 3.59107 101.898 5.50204 101.898 7.90994C101.898 10.3178 100.997 12.2288 98.7911 12.2288ZM115.731 8.75085C115.731 10.9294 114.676 12.2671 112.931 12.2671C111.185 12.2671 110.149 10.8912 110.149 8.71254V1.06854H107.405V8.71254C107.405 12.6684 109.631 14.8852 112.931 14.8852C116.23 14.8852 118.474 12.6111 118.474 8.67433V1.03023H115.731V8.75085ZM126.149 1.10675H121.89V14.7132H125.957C126.879 14.7856 127.806 14.6605 128.676 14.3463C129.547 14.0321 130.338 13.5361 131 12.8917C131.662 12.2473 132.177 11.4693 132.511 10.61C132.846 9.75078 132.992 8.83016 132.94 7.90994C132.94 2.9413 130.062 1.10675 126.149 1.10675ZM125.957 12.076H124.614V3.7439H126.052C128.949 3.7439 130.139 5.139 130.139 7.90994C130.193 8.47031 130.121 9.03548 129.93 9.56502C129.738 10.0947 129.432 10.5756 129.033 10.9736C128.633 11.3716 128.15 11.6768 127.618 11.8674C127.086 12.0579 126.519 12.1292 125.957 12.076Z" fill="white"/>
</svg>
