<svg width="141" height="19" viewBox="0 0 141 19" fill="none" xmlns="http://www.w3.org/2000/svg">
<path d="M9.8444 10.8729H4.29514L2.90407 14.7532H0.600586L5.89557 0.368103H8.34865L13.6138 14.7532H11.2205L9.8444 10.8729ZM4.86355 9.14672H9.276L7.10717 2.83207L4.86355 9.14672Z" fill="white"/>
<path d="M24.9524 9.51664C24.9524 12.7772 23.1875 14.8724 20.4652 14.8724C19.7873 14.9073 19.1132 14.7527 18.5204 14.4264C17.9277 14.1002 17.4404 13.6154 17.1146 13.0281V18.2363H14.9458V4.26418H17.0548V6.00515C17.4008 5.42543 17.8987 4.94826 18.4961 4.62382C19.0936 4.29929 19.7685 4.13937 20.4501 4.16092C23.1724 4.16092 24.9524 6.197 24.9524 9.51664ZM22.7088 9.51664C22.7088 7.39207 21.6019 5.99039 19.8968 5.99039C18.1916 5.99039 17.1146 7.4658 17.1146 9.51664C17.1146 11.5674 18.2364 13.0428 19.8968 13.0428C21.5571 13.0428 22.7088 11.656 22.7088 9.51664Z" fill="white"/>
<path d="M36.6641 9.51699C36.6641 12.7776 34.8992 14.8727 32.1769 14.8727C31.5015 14.9047 30.8305 14.7489 30.2408 14.4228C29.6509 14.0966 29.166 13.6135 28.8413 13.0284V18.2365H26.6426V4.26452H28.7666V6.0055C29.1114 5.42467 29.6089 4.94671 30.2067 4.62197C30.8044 4.29734 31.48 4.13812 32.162 4.16127C34.8842 4.16127 36.6641 6.19735 36.6641 9.51699ZM34.4205 9.51699C34.4205 7.39242 33.3137 5.99073 31.6085 5.99073C29.9033 5.99073 28.8263 7.46614 28.8263 9.51699C28.8263 11.5677 29.9482 13.0431 31.6085 13.0431C33.2688 13.0431 34.4205 11.6563 34.4205 9.51699Z" fill="white"/>
<path d="M38.4287 0.368225H40.6125V14.7534H38.4287V0.368225Z" fill="white"/>
<path d="M51.9804 11.67C51.7426 12.6623 51.1472 13.5358 50.3053 14.1274C49.4633 14.719 48.4319 14.9888 47.4033 14.8864C44.3071 14.8864 42.3926 12.8355 42.3926 9.56016C42.3926 6.28472 44.3221 4.13062 47.3136 4.13062C50.3051 4.13062 52.115 6.19623 52.115 9.30926V10.047H44.6362V10.1798C44.604 10.5653 44.6554 10.9531 44.7866 11.3175C44.9179 11.6819 45.1263 12.0147 45.3978 12.2937C45.6693 12.5727 45.9979 12.7916 46.3618 12.9359C46.7255 13.0801 47.1163 13.1466 47.508 13.1306C48.0238 13.1797 48.5416 13.0625 48.984 12.7964C49.4264 12.5303 49.7692 12.1299 49.9611 11.6552L51.9804 11.67ZM44.6062 8.54207H49.9163C49.937 8.19549 49.8847 7.84841 49.7624 7.52278C49.6402 7.19716 49.4507 6.90016 49.2061 6.65055C48.9614 6.40084 48.667 6.20401 48.3412 6.07252C48.0154 5.94093 47.6655 5.87758 47.3136 5.88636C46.9582 5.88247 46.6056 5.94831 46.2763 6.0802C45.9471 6.21209 45.6477 6.40733 45.3957 6.65454C45.1436 6.90176 44.9441 7.19596 44.8086 7.51999C44.673 7.84412 44.6042 8.1915 44.6062 8.54207Z" fill="white"/>
<path d="M63.7371 0.369016C64.3748 0.337451 65.0114 0.437843 65.608 0.663738C66.2036 0.889644 66.745 1.23603 67.1972 1.68068C67.6494 2.12533 68.0023 2.65847 68.2339 3.24558C68.4646 3.83279 68.5678 4.4612 68.5377 5.09031C68.5658 5.7266 68.4585 6.3617 68.2229 6.9547C67.9873 7.54759 67.6283 8.08522 67.1681 8.53276C66.7089 8.9804 66.1595 9.32808 65.5559 9.55344C64.9513 9.77871 64.3066 9.87678 63.6619 9.84106H60.5356V14.7542H58.2476V0.369016H63.7371ZM60.5356 7.9673H63.1234C63.5265 8.02087 63.9356 7.98526 64.3226 7.86325C64.7096 7.74113 65.0646 7.53562 65.3603 7.26157C65.6571 6.98752 65.8877 6.65181 66.0361 6.2788C66.1855 5.90578 66.2477 5.50483 66.2196 5.10507C66.2477 4.70722 66.1855 4.30816 66.0381 3.93694C65.8898 3.56562 65.6601 3.23161 65.3654 2.95886C65.0706 2.6862 64.7177 2.48178 64.3316 2.36047C63.9466 2.23916 63.5395 2.20394 63.1385 2.25752H60.5356V7.9673Z" fill="white"/>
<path d="M69.3311 9.51587C69.3311 6.21099 71.3053 4.13062 74.3864 4.13062C77.4676 4.13062 79.4277 6.21099 79.4277 9.51587C79.4277 12.8207 77.4826 14.8864 74.3864 14.8864C71.2902 14.8864 69.3311 12.8207 69.3311 9.51587ZM77.1988 9.51587C77.1988 7.24375 76.1521 5.91589 74.3864 5.91589C72.6217 5.91589 71.5599 7.25851 71.5599 9.51587C71.5599 11.7732 72.6067 13.1158 74.3864 13.1158C76.1661 13.1158 77.1988 11.788 77.1988 9.51587Z" fill="white"/>
<path d="M80.9678 9.51574C80.9678 6.26982 82.7786 4.16002 85.4556 4.16002C86.1314 4.1262 86.8032 4.28133 87.3928 4.60756C87.9833 4.93389 88.4676 5.41804 88.7914 6.00425V0.368225H90.9752V14.7534H88.8506V12.9682C88.5257 13.57 88.0344 14.0685 87.4328 14.4055C86.8323 14.7424 86.1465 14.904 85.4556 14.8715C82.7786 14.8715 80.9678 12.7469 80.9678 9.51574ZM83.1967 9.51574C83.1967 11.6698 84.3036 13.0419 86.0091 13.0419C87.7146 13.0419 88.8065 11.6403 88.8065 9.51574C88.8065 7.39117 87.6845 5.98949 86.0091 5.98949C84.3337 5.98949 83.1967 7.3764 83.1967 9.51574Z" fill="white"/>
<path d="M100.279 7.87964C100.183 7.3048 99.8707 6.78673 99.4055 6.42847C98.9392 6.07032 98.3547 5.89833 97.7661 5.94681C96.0907 5.94681 94.9687 7.33373 94.9687 9.51736C94.9687 11.7009 96.0907 13.0878 97.7802 13.0878C98.3597 13.1447 98.9392 12.9831 99.4034 12.6354C99.8667 12.2878 100.179 11.7799 100.279 11.214H102.372C102.241 12.2976 101.685 13.2876 100.825 13.9738C99.9649 14.6599 98.867 14.9878 97.7661 14.8877C94.7742 14.8877 92.7549 12.837 92.7549 9.51736C92.7549 6.19772 94.7291 4.13211 97.7511 4.13211C98.862 4.04102 99.9659 4.38182 100.827 5.08186C101.687 5.7819 102.237 6.78583 102.357 7.87964H100.279Z" fill="white"/>
<path d="M103.719 11.7744C103.719 9.94485 105.14 8.82361 107.667 8.69082L110.584 8.52851V7.67283C110.584 6.50719 109.806 5.84326 108.475 5.84326C107.985 5.78041 107.489 5.89544 107.079 6.167C106.669 6.43845 106.373 6.84778 106.246 7.31867H104.197C104.197 5.43014 106.052 4.07275 108.534 4.07275C111.018 4.07275 112.753 5.44491 112.753 7.51052V14.7547H110.599V13.0285C110.262 13.6137 109.772 14.0989 109.18 14.4337C108.588 14.7684 107.916 14.9404 107.233 14.9317C106.788 14.9728 106.339 14.9217 105.915 14.7817C105.489 14.6417 105.099 14.416 104.77 14.1188C104.439 13.8216 104.174 13.4596 103.992 13.0559C103.812 12.6522 103.719 12.2158 103.719 11.7744ZM110.584 10.8302V10.0187L107.966 10.181C106.651 10.2547 105.918 10.8154 105.918 11.6564C105.918 12.4973 106.68 13.1318 107.862 13.1318C108.195 13.158 108.529 13.1192 108.847 13.0178C109.165 12.9163 109.46 12.7541 109.714 12.5403C109.968 12.3266 110.177 12.0655 110.329 11.7721C110.481 11.4786 110.573 11.1586 110.599 10.8302H110.584Z" fill="white"/>
<path d="M118.841 4.14478C121.204 4.14478 122.894 5.42844 122.938 7.28744H120.89C120.8 6.35794 120.008 5.81203 118.78 5.81203C117.554 5.81203 116.821 6.34317 116.821 7.15465C116.821 7.96613 117.345 8.20217 118.437 8.48251L120.231 8.88086C122.371 9.39724 123.223 10.1792 123.223 11.7137C123.223 13.6022 121.413 14.9005 118.735 14.9005C116.058 14.9005 114.547 13.6316 114.383 11.7137H116.582C116.746 12.7316 117.554 13.2628 118.886 13.2628C120.216 13.2628 121.009 12.7316 121.009 11.9054C121.009 11.0793 120.605 10.9022 119.513 10.6218L117.614 10.1644C115.699 9.70711 114.727 8.68902 114.727 7.28744C114.683 5.41367 116.372 4.14478 118.841 4.14478Z" fill="white"/>
<path d="M127.935 1.77008V4.24881H129.955V5.96026H127.935V11.7439C127.935 12.6438 128.339 13.057 129.222 13.057H129.94V14.7536C129.54 14.8227 129.134 14.8523 128.728 14.8422C126.574 14.8422 125.737 14.0455 125.737 12.0094V5.97503H124.241V4.26358H125.737V1.77008H127.935Z" fill="white"/>
<path d="M135.817 4.14478C138.182 4.14478 139.871 5.42844 139.916 7.28744H137.867C137.777 6.35794 136.984 5.81203 135.758 5.81203C134.531 5.81203 133.798 6.34317 133.798 7.15465C133.798 7.96613 134.322 8.20217 135.414 8.48251L137.209 8.88086C139.348 9.39724 140.2 10.1792 140.2 11.7137C140.2 13.6022 138.39 14.9005 135.788 14.9005C133.185 14.9005 131.54 13.5727 131.391 11.6989H133.544C133.709 12.7169 134.517 13.248 135.847 13.248C137.179 13.248 137.972 12.7169 137.972 11.8906C137.972 11.0645 137.568 10.8874 136.476 10.6071L134.531 10.1498C132.617 9.69234 131.644 8.67435 131.644 7.27267C131.659 5.41367 133.35 4.14478 135.817 4.14478Z" fill="white"/>
</svg>
